<?xml version="1.0" encoding="UTF-8"?>
<!DOCTYPE svg PUBLIC "-//W3C//DTD SVG 1.1//EN" "http://www.w3.org/Graphics/SVG/1.1/DTD/svg11.dtd">
<svg xmlns="http://www.w3.org/2000/svg" version="1.1" width="2000px" height="2000px" style="shape-rendering:geometricPrecision; text-rendering:geometricPrecision; image-rendering:optimizeQuality; fill-rule:evenodd; clip-rule:evenodd" xmlns:xlink="http://www.w3.org/1999/xlink">
<g><path style="opacity:0.999" fill="#ff0000" d="M 1737.5,1503.5 C 1236.5,1503.5 735.5,1503.5 234.5,1503.5C 162.177,1403.13 114.011,1291.8 90,1169.5C 46.2677,937.522 83.9343,719.856 203,516.5C 329.936,311.705 509.436,175.538 741.5,108C 951.429,52.2837 1156.1,67.2837 1355.5,153C 1549.12,240.956 1695.96,378.789 1796,566.5C 1895.21,762.52 1922.54,968.187 1878,1183.5C 1855.98,1284.17 1817.98,1378.17 1764,1465.5C 1755.39,1478.41 1746.56,1491.07 1737.5,1503.5 Z"/></g>
<g><path style="opacity:1" fill="#fffefe" d="M 955.5,265.5 C 1041.33,262.343 1110.5,294.343 1163,361.5C 1210.44,431.265 1219.77,505.931 1191,585.5C 1174.99,625.042 1150.15,657.875 1116.5,684C 1252.12,724.647 1353.95,806.813 1422,930.5C 1460.98,1005.06 1479.98,1084.39 1479,1168.5C 1474.49,1193.01 1459.99,1207.51 1435.5,1212C 1129.83,1212.67 824.167,1212.67 518.5,1212C 494.215,1207.38 480.049,1192.88 476,1168.5C 476.789,1011.78 536.289,882.618 654.5,781C 707.324,737.578 766.657,705.578 832.5,685C 767.699,632.538 737.199,564.371 741,480.5C 749.895,399.356 789.061,337.856 858.5,296C 888.844,279.05 921.177,268.883 955.5,265.5 Z"/></g>
<g><path style="opacity:1" fill="#ff0100" d="M 960.5,365.5 C 1030.41,363.681 1077.58,395.348 1102,460.5C 1115.68,516.123 1101.51,563.29 1059.5,602C 1011.6,637.759 960.938,642.092 907.5,615C 859.802,584.775 837.636,541.275 841,484.5C 849.588,427.58 881.088,389.747 935.5,371C 943.872,368.723 952.205,366.889 960.5,365.5 Z"/></g>
<g><path style="opacity:1" fill="#fe0100" d="M 955.5,764.5 C 1069.71,761.06 1169.05,797.226 1253.5,873C 1322.09,938.331 1363.09,1018.16 1376.5,1112.5C 1110.5,1112.5 844.5,1112.5 578.5,1112.5C 598.95,980.667 666.617,881.5 781.5,815C 835.959,785.452 893.959,768.619 955.5,764.5 Z"/></g>
<g><path style="opacity:1" fill="#fb9996" d="M 921.5,828.5 C 914.065,830.16 906.398,831.16 898.5,831.5C 899.263,830.732 900.263,830.232 901.5,830C 908.164,829.389 914.83,828.889 921.5,828.5 Z"/></g>
<g><path style="opacity:1" fill="#f3f3f3" d="M 921.5,828.5 C 929.684,828.174 937.684,828.508 945.5,829.5C 942.5,829.5 939.5,829.5 936.5,829.5C 935.873,834.141 935.54,838.807 935.5,843.5C 931.958,843.187 928.625,843.521 925.5,844.5C 925.286,846.144 925.62,847.644 926.5,849C 929.587,849.259 932.587,849.759 935.5,850.5C 935.85,855.036 935.183,859.369 933.5,863.5C 919.741,863.357 906.074,864.357 892.5,866.5C 892.5,868.167 892.5,869.833 892.5,871.5C 906.299,869.791 919.965,869.458 933.5,870.5C 933.261,874.842 932.927,879.176 932.5,883.5C 910.133,883.028 888.133,885.361 866.5,890.5C 866.5,891.833 866.5,893.167 866.5,894.5C 888.468,892.362 910.468,890.695 932.5,889.5C 930.652,893.854 929.985,898.52 930.5,903.5C 923.492,903.334 916.492,903.5 909.5,904C 908.189,906.274 908.189,908.44 909.5,910.5C 910.5,910.5 911.5,910.5 912.5,910.5C 917.833,910.5 923.167,910.5 928.5,910.5C 928.774,915.263 928.441,919.93 927.5,924.5C 908.702,924.997 890.036,926.663 871.5,929.5C 871.5,931.5 871.5,933.5 871.5,935.5C 884.508,934.142 897.508,932.642 910.5,931C 916.349,930.182 922.015,930.348 927.5,931.5C 927.5,935.833 927.5,940.167 927.5,944.5C 917.133,944.855 906.799,945.522 896.5,946.5C 896.5,948.5 896.5,950.5 896.5,952.5C 906.134,951.393 915.8,950.726 925.5,950.5C 925.666,954.846 925.499,959.179 925,963.5C 921.924,964.288 918.758,964.788 915.5,965C 914.577,967.041 914.244,969.208 914.5,971.5C 917.5,971.5 920.5,971.5 923.5,971.5C 922.771,976.13 922.437,980.797 922.5,985.5C 916.797,985.375 911.13,985.708 905.5,986.5C 903.833,986.5 902.167,986.5 900.5,986.5C 900.5,988.5 900.5,990.5 900.5,992.5C 907.845,992.371 915.178,992.038 922.5,991.5C 922.093,997.161 921.76,1002.83 921.5,1008.5C 914.159,1008.33 906.826,1008.5 899.5,1009C 898.944,1009.38 898.611,1009.88 898.5,1010.5C 887.166,1012 875.833,1013.67 864.5,1015.5C 850.512,1017.45 836.512,1019.79 822.5,1022.5C 816.863,1023.71 811.196,1024.71 805.5,1025.5C 806.434,965.828 807.601,906.161 809,846.5C 811.415,845.868 813.582,844.868 815.5,843.5C 817.857,843.663 820.19,843.497 822.5,843C 823.056,842.617 823.389,842.117 823.5,841.5C 825.167,841.5 826.833,841.5 828.5,841.5C 833.149,840.935 837.816,840.435 842.5,840C 843.056,839.617 843.389,839.117 843.5,838.5C 844.167,838.5 844.833,838.5 845.5,838.5C 849.36,838.192 853.026,837.525 856.5,836.5C 856.833,836.5 857.167,836.5 857.5,836.5C 864.795,835.467 872.129,834.801 879.5,834.5C 885.374,833.951 891.041,832.951 896.5,831.5C 897.167,831.5 897.833,831.5 898.5,831.5C 906.398,831.16 914.065,830.16 921.5,828.5 Z"/></g>
<g><path style="opacity:1" fill="#dae6eb" d="M 945.5,829.5 C 947.199,829.34 948.866,829.506 950.5,830C 954.52,832.034 958.52,834.034 962.5,836C 965.094,838.086 967.094,840.586 968.5,843.5C 968.5,904.5 968.5,965.5 968.5,1026.5C 964.069,1024.25 959.736,1021.75 955.5,1019C 954.207,1018.51 952.873,1018.34 951.5,1018.5C 951.631,1017.62 951.298,1016.96 950.5,1016.5C 933.855,1009.59 916.522,1007.59 898.5,1010.5C 898.611,1009.88 898.944,1009.38 899.5,1009C 906.826,1008.5 914.159,1008.33 921.5,1008.5C 921.76,1002.83 922.093,997.161 922.5,991.5C 915.178,992.038 907.845,992.371 900.5,992.5C 900.5,990.5 900.5,988.5 900.5,986.5C 902.167,986.5 903.833,986.5 905.5,986.5C 904.432,987.434 903.099,987.768 901.5,987.5C 901.5,988.833 901.5,990.167 901.5,991.5C 918.077,989.404 934.411,990.571 950.5,995C 951,995.5 951.5,996 952,996.5C 952.808,994.421 952.641,992.421 951.5,990.5C 942.198,986.885 932.531,985.218 922.5,985.5C 922.437,980.797 922.771,976.13 923.5,971.5C 920.5,971.5 917.5,971.5 914.5,971.5C 914.244,969.208 914.577,967.041 915.5,965C 918.758,964.788 921.924,964.288 925,963.5C 925.499,959.179 925.666,954.846 925.5,950.5C 929.182,950.335 932.848,950.501 936.5,951C 942.225,952.411 947.892,953.911 953.5,955.5C 953.5,953.5 953.5,951.5 953.5,949.5C 949.687,948.84 946.021,947.674 942.5,946C 937.504,945.389 932.504,944.889 927.5,944.5C 927.5,940.167 927.5,935.833 927.5,931.5C 932.511,931.334 937.511,931.501 942.5,932C 946.608,933.095 950.608,934.262 954.5,935.5C 954.756,933.208 954.423,931.041 953.5,929C 947.59,928.408 941.923,927.075 936.5,925C 933.518,924.502 930.518,924.335 927.5,924.5C 928.441,919.93 928.774,915.263 928.5,910.5C 923.167,910.5 917.833,910.5 912.5,910.5C 919.989,909.344 927.655,909.178 935.5,910C 941.469,911.693 947.469,913.193 953.5,914.5C 953.5,912.5 953.5,910.5 953.5,908.5C 939.066,904.564 924.4,903.564 909.5,905.5C 909.5,907.167 909.5,908.833 909.5,910.5C 908.189,908.44 908.189,906.274 909.5,904C 916.492,903.5 923.492,903.334 930.5,903.5C 929.985,898.52 930.652,893.854 932.5,889.5C 939.475,889.991 946.142,891.658 952.5,894.5C 953.769,892.305 953.769,890.139 952.5,888C 946.079,885.365 939.413,883.865 932.5,883.5C 932.927,879.176 933.261,874.842 933.5,870.5C 940.342,870.547 947.009,871.547 953.5,873.5C 953.5,871.5 953.5,869.5 953.5,867.5C 946.597,867.24 939.93,865.907 933.5,863.5C 935.183,859.369 935.85,855.036 935.5,850.5C 938.518,850.335 941.518,850.502 944.5,851C 947.542,853.022 950.875,854.189 954.5,854.5C 954.5,852.167 954.5,849.833 954.5,847.5C 949.872,847.884 945.539,847.05 941.5,845C 936.177,844.501 930.844,844.334 925.5,844.5C 928.625,843.521 931.958,843.187 935.5,843.5C 935.54,838.807 935.873,834.141 936.5,829.5C 939.5,829.5 942.5,829.5 945.5,829.5 Z"/></g>
<g><path style="opacity:1" fill="#fab4b2" d="M 998.5,828.5 C 994.713,829.918 990.713,830.918 986.5,831.5C 986.62,830.414 987.287,829.747 988.5,829.5C 991.783,828.673 995.116,828.34 998.5,828.5 Z"/></g>
<g><path style="opacity:1" fill="#f3f2f3" d="M 998.5,828.5 C 1004.5,828.5 1010.5,828.5 1016.5,828.5C 1016.92,829.222 1017.58,829.722 1018.5,830C 1022.15,830.499 1025.82,830.665 1029.5,830.5C 1033.81,831.08 1038.14,831.414 1042.5,831.5C 1042.83,831.5 1043.17,831.5 1043.5,831.5C 1044.26,832.268 1045.26,832.768 1046.5,833C 1052.15,833.757 1057.82,834.257 1063.5,834.5C 1073.88,835.589 1084.21,836.922 1094.5,838.5C 1094.61,839.117 1094.94,839.617 1095.5,840C 1100.52,840.411 1105.52,840.911 1110.5,841.5C 1114.5,841.833 1118.5,842.167 1122.5,842.5C 1124.1,844.074 1126.1,844.741 1128.5,844.5C 1129.49,844.328 1130.16,844.662 1130.5,845.5C 1130.5,850.833 1130.5,856.167 1130.5,861.5C 1131.04,902.832 1131.54,944.165 1132,985.5C 1132.17,991.016 1132.67,996.349 1133.5,1001.5C 1133.5,1009.5 1133.5,1017.5 1133.5,1025.5C 1113.83,1022.15 1094.16,1018.82 1074.5,1015.5C 1055.92,1012.84 1037.25,1010.84 1018.5,1009.5C 1007.71,1008.7 997.709,1011.03 988.5,1016.5C 981.637,1019.02 975.637,1022.85 970.5,1028C 969.184,1028.53 968.517,1028.03 968.5,1026.5C 968.5,965.5 968.5,904.5 968.5,843.5C 971.251,841.255 973.917,838.755 976.5,836C 979.54,833.78 982.873,832.28 986.5,831.5C 990.713,830.918 994.713,829.918 998.5,828.5 Z"/></g>
<g><path style="opacity:1" fill="#f9b2b1" d="M 1016.5,828.5 C 1020.84,828.739 1025.18,829.073 1029.5,829.5C 1029.5,829.833 1029.5,830.167 1029.5,830.5C 1025.82,830.665 1022.15,830.499 1018.5,830C 1017.58,829.722 1016.92,829.222 1016.5,828.5 Z"/></g>
<g><path style="opacity:1" fill="#fc5854" d="M 1029.5,830.5 C 1029.5,830.167 1029.5,829.833 1029.5,829.5C 1034.1,829.28 1038.43,829.946 1042.5,831.5C 1038.14,831.414 1033.81,831.08 1029.5,830.5 Z"/></g>
<g><path style="opacity:1" fill="#f9abaa" d="M 896.5,831.5 C 891.041,832.951 885.374,833.951 879.5,834.5C 880.5,833.833 881.5,833.167 882.5,832.5C 887.152,832.002 891.819,831.669 896.5,831.5 Z"/></g>
<g><path style="opacity:1" fill="#fa9997" d="M 1043.5,831.5 C 1050.38,831.981 1057.04,832.981 1063.5,834.5C 1057.82,834.257 1052.15,833.757 1046.5,833C 1045.26,832.768 1044.26,832.268 1043.5,831.5 Z"/></g>
<g><path style="opacity:1" fill="#fe4b41" d="M 882.5,832.5 C 881.5,833.167 880.5,833.833 879.5,834.5C 872.129,834.801 864.795,835.467 857.5,836.5C 859.811,834.932 862.478,834.098 865.5,834C 871.189,833.627 876.855,833.127 882.5,832.5 Z"/></g>
<g><path style="opacity:1" fill="#fc6360" d="M 856.5,836.5 C 853.026,837.525 849.36,838.192 845.5,838.5C 848.845,836.783 852.511,836.116 856.5,836.5 Z"/></g>
<g><path style="opacity:1" fill="#fb8c89" d="M 843.5,838.5 C 843.389,839.117 843.056,839.617 842.5,840C 837.816,840.435 833.149,840.935 828.5,841.5C 828.918,840.778 829.584,840.278 830.5,840C 834.848,839.535 839.181,839.035 843.5,838.5 Z"/></g>
<g><path style="opacity:1" fill="#fc7e79" d="M 1094.5,838.5 C 1100.1,838.779 1105.44,839.779 1110.5,841.5C 1105.52,840.911 1100.52,840.411 1095.5,840C 1094.94,839.617 1094.61,839.117 1094.5,838.5 Z"/></g>
<g><path style="opacity:1" fill="#fc8c88" d="M 823.5,841.5 C 823.389,842.117 823.056,842.617 822.5,843C 820.19,843.497 817.857,843.663 815.5,843.5C 813.435,843.517 811.435,843.85 809.5,844.5C 809.611,843.883 809.944,843.383 810.5,843C 814.848,842.535 819.181,842.035 823.5,841.5 Z"/></g>
<g><path style="opacity:1" fill="#fb716e" d="M 1122.5,842.5 C 1124.9,842.259 1126.9,842.926 1128.5,844.5C 1126.1,844.741 1124.1,844.074 1122.5,842.5 Z"/></g>
<g><path style="opacity:1" fill="#bbbbbb" d="M 899.5,844.5 C 903.5,844.5 907.5,844.5 911.5,844.5C 911.5,846.5 911.5,848.5 911.5,850.5C 895.198,852.271 878.865,853.938 862.5,855.5C 862.141,853.234 862.808,851.401 864.5,850C 876.347,848.399 888.014,846.565 899.5,844.5 Z"/></g>
<g><path style="opacity:1" fill="#b0b6b8" d="M 925.5,844.5 C 930.844,844.334 936.177,844.501 941.5,845C 945.539,847.05 949.872,847.884 954.5,847.5C 954.5,849.833 954.5,852.167 954.5,854.5C 950.875,854.189 947.542,853.022 944.5,851C 941.518,850.502 938.518,850.335 935.5,850.5C 932.587,849.759 929.587,849.259 926.5,849C 925.62,847.644 925.286,846.144 925.5,844.5 Z"/></g>
<g><path style="opacity:1" fill="#bbbbbb" d="M 1011.5,843.5 C 1018.51,843.668 1025.51,844.001 1032.5,844.5C 1032.5,846.167 1032.5,847.833 1032.5,849.5C 1024.49,849.334 1016.49,849.5 1008.5,850C 1001.83,850.418 995.5,851.918 989.5,854.5C 989.5,851.833 989.5,849.167 989.5,846.5C 996.956,845.386 1004.29,844.386 1011.5,843.5 Z"/></g>
<g><path style="opacity:1" fill="#b9b9b9" d="M 1045.5,845.5 C 1068.44,849.107 1091.44,852.441 1114.5,855.5C 1114.5,857.167 1114.5,858.833 1114.5,860.5C 1091.5,857.332 1068.5,854.332 1045.5,851.5C 1045.5,849.5 1045.5,847.5 1045.5,845.5 Z"/></g>
<g><path style="opacity:1" fill="#96c5d5" d="M 1130.5,845.5 C 1131.83,846.5 1133.17,847.5 1134.5,848.5C 1136.53,851.518 1138.53,854.518 1140.5,857.5C 1142.03,897.784 1142.7,938.117 1142.5,978.5C 1139.83,978.5 1137.17,978.5 1134.5,978.5C 1134.83,994.342 1134.5,1010.01 1133.5,1025.5C 1133.5,1017.5 1133.5,1009.5 1133.5,1001.5C 1133.05,959.5 1132.55,917.5 1132,875.5C 1131.83,870.649 1131.33,865.982 1130.5,861.5C 1130.5,856.167 1130.5,850.833 1130.5,845.5 Z"/></g>
<g><path style="opacity:1" fill="#f24336" d="M 804.5,848.5 C 801.664,851.513 799.331,854.846 797.5,858.5C 796.168,867.642 795.502,877.142 795.5,887C 794.76,920.83 794.427,954.663 794.5,988.5C 794.5,1007.17 794.5,1025.83 794.5,1044.5C 798.167,1044.5 801.833,1044.5 805.5,1044.5C 805.5,1045.17 805.833,1045.5 806.5,1045.5C 821.995,1046.66 837.661,1046.83 853.5,1046C 855.708,1045.81 857.708,1045.31 859.5,1044.5C 860.833,1044.5 862.167,1044.5 863.5,1044.5C 869.84,1044.15 876.173,1043.65 882.5,1043C 883.737,1042.77 884.737,1042.27 885.5,1041.5C 887.5,1041.5 889.5,1041.5 891.5,1041.5C 895.819,1040.96 900.152,1040.46 904.5,1040C 905.416,1039.72 906.082,1039.22 906.5,1038.5C 908.435,1037.85 910.435,1037.52 912.5,1037.5C 915.167,1037.17 917.833,1036.83 920.5,1036.5C 920.5,1039.5 920.5,1042.5 920.5,1045.5C 917.811,1047.11 914.811,1047.94 911.5,1048C 890.363,1049.89 869.196,1051.39 848,1052.5C 835.448,1053.77 822.948,1055.27 810.5,1057C 802.5,1057.67 794.5,1057.67 786.5,1057C 784.641,1055.44 783.141,1053.61 782,1051.5C 781.536,1052.09 781.369,1052.76 781.5,1053.5C 780.842,1052.21 780.508,1050.71 780.5,1049C 782.893,984.505 785.393,920.005 788,855.5C 792.047,849.762 797.547,847.428 804.5,848.5 Z"/></g>
<g><path style="opacity:1" fill="#f34235" d="M 1134.5,848.5 C 1143.02,847.917 1148.52,851.584 1151,859.5C 1153.37,923.497 1155.54,987.497 1157.5,1051.5C 1155.52,1053.14 1153.52,1054.81 1151.5,1056.5C 1148.5,1056.83 1145.5,1057.17 1142.5,1057.5C 1101.62,1053.42 1060.62,1050.09 1019.5,1047.5C 1019.5,1044.17 1019.5,1040.83 1019.5,1037.5C 1020.5,1037.5 1021.5,1037.5 1022.5,1037.5C 1030.82,1039 1039.16,1040.33 1047.5,1041.5C 1047.92,1042.22 1048.58,1042.72 1049.5,1043C 1056.84,1043.55 1064.17,1044.05 1071.5,1044.5C 1077.2,1044.45 1082.86,1044.78 1088.5,1045.5C 1095.33,1046.17 1102.33,1046.5 1109.5,1046.5C 1119.06,1046.72 1128.39,1046.06 1137.5,1044.5C 1137.83,1044.5 1138.17,1044.5 1138.5,1044.5C 1140.83,1044.5 1143.17,1044.5 1145.5,1044.5C 1145.69,1020.16 1145.36,995.823 1144.5,971.5C 1145.16,933.485 1144.49,895.819 1142.5,858.5C 1141.83,858.167 1141.17,857.833 1140.5,857.5C 1138.53,854.518 1136.53,851.518 1134.5,848.5 Z"/></g>
<g><path style="opacity:1" fill="#bcbcbc" d="M 840.5,853.5 C 843.167,853.5 845.833,853.5 848.5,853.5C 848.5,855.5 848.5,857.5 848.5,859.5C 842.178,860.014 835.845,860.347 829.5,860.5C 829.5,858.5 829.5,856.5 829.5,854.5C 833.371,854.815 837.038,854.482 840.5,853.5 Z"/></g>
<g><path style="opacity:1" fill="#b6b8b8" d="M 933.5,863.5 C 939.93,865.907 946.597,867.24 953.5,867.5C 953.5,869.5 953.5,871.5 953.5,873.5C 947.009,871.547 940.342,870.547 933.5,870.5C 919.965,869.458 906.299,869.791 892.5,871.5C 892.5,869.833 892.5,868.167 892.5,866.5C 906.074,864.357 919.741,863.357 933.5,863.5 Z"/></g>
<g><path style="opacity:1" fill="#bbbbbb" d="M 1008.5,863.5 C 1016.17,863.334 1023.84,863.5 1031.5,864C 1045.82,866.364 1060.16,868.197 1074.5,869.5C 1074.5,871.167 1074.5,872.833 1074.5,874.5C 1055.83,872.833 1037.17,871.167 1018.5,869.5C 1008.39,868.907 998.725,870.573 989.5,874.5C 989.244,872.208 989.577,870.041 990.5,868C 996.479,865.839 1002.48,864.339 1008.5,863.5 Z"/></g>
<g><path style="opacity:1" fill="#bcbcbc" d="M 867.5,869.5 C 870.833,869.5 874.167,869.5 877.5,869.5C 877.5,871.167 877.5,872.833 877.5,874.5C 868.398,875.111 859.398,876.611 850.5,879C 843.44,879.444 836.44,880.278 829.5,881.5C 829.5,879.5 829.5,877.5 829.5,875.5C 842.242,873.136 854.908,871.136 867.5,869.5 Z"/></g>
<g><path style="opacity:1" fill="#b7b7b7" d="M 1089.5,872.5 C 1096.88,873.35 1104.22,874.517 1111.5,876C 1113.11,877.049 1113.77,878.549 1113.5,880.5C 1105.51,879.506 1097.51,878.506 1089.5,877.5C 1089.5,875.833 1089.5,874.167 1089.5,872.5 Z"/></g>
<g><path style="opacity:1" fill="#b8baba" d="M 932.5,883.5 C 939.413,883.865 946.079,885.365 952.5,888C 953.769,890.139 953.769,892.305 952.5,894.5C 946.142,891.658 939.475,889.991 932.5,889.5C 910.468,890.695 888.468,892.362 866.5,894.5C 866.5,893.167 866.5,891.833 866.5,890.5C 888.133,885.361 910.133,883.028 932.5,883.5 Z"/></g>
<g><path style="opacity:1" fill="#b9b9b9" d="M 1004.5,884.5 C 1009.17,884.5 1013.83,884.5 1018.5,884.5C 1018.5,886.167 1018.5,887.833 1018.5,889.5C 1008.92,889.32 999.584,890.653 990.5,893.5C 990.261,891.533 990.594,889.699 991.5,888C 995.942,886.826 1000.28,885.659 1004.5,884.5 Z"/></g>
<g><path style="opacity:1" fill="#bcbcbc" d="M 1032.5,885.5 C 1041.23,885.814 1049.89,886.647 1058.5,888C 1060.27,891.111 1059.44,892.944 1056,893.5C 1048.17,892.73 1040.34,892.063 1032.5,891.5C 1032.5,889.5 1032.5,887.5 1032.5,885.5 Z"/></g>
<g><path style="opacity:1" fill="#b9b9b9" d="M 1073.5,890.5 C 1086.93,891.848 1100.27,893.848 1113.5,896.5C 1113.5,897.833 1113.5,899.167 1113.5,900.5C 1100.09,899.812 1086.75,898.478 1073.5,896.5C 1073.5,894.5 1073.5,892.5 1073.5,890.5 Z"/></g>
<g><path style="opacity:1" fill="#bababa" d="M 848.5,892.5 C 849.833,892.5 851.167,892.5 852.5,892.5C 852.5,894.5 852.5,896.5 852.5,898.5C 845.173,899.227 837.84,899.893 830.5,900.5C 830.5,899.167 830.5,897.833 830.5,896.5C 836.389,894.385 842.389,893.052 848.5,892.5 Z"/></g>
<g><path style="opacity:1" fill="#afb4b6" d="M 912.5,910.5 C 911.5,910.5 910.5,910.5 909.5,910.5C 909.5,908.833 909.5,907.167 909.5,905.5C 924.4,903.564 939.066,904.564 953.5,908.5C 953.5,910.5 953.5,912.5 953.5,914.5C 947.469,913.193 941.469,911.693 935.5,910C 927.655,909.178 919.989,909.344 912.5,910.5 Z"/></g>
<g><path style="opacity:1" fill="#bbbbbb" d="M 1008.5,903.5 C 1020.94,903.264 1033.27,904.264 1045.5,906.5C 1045.5,908.167 1045.5,909.833 1045.5,911.5C 1032.89,909.725 1020.22,909.225 1007.5,910C 1001.9,911.812 996.233,913.312 990.5,914.5C 990.261,912.533 990.594,910.699 991.5,909C 996.995,906.266 1002.66,904.433 1008.5,903.5 Z"/></g>
<g><path style="opacity:1" fill="#bababa" d="M 887.5,906.5 C 890.167,906.5 892.833,906.5 895.5,906.5C 895.5,908.5 895.5,910.5 895.5,912.5C 873.324,914.752 851.324,918.085 829.5,922.5C 829.244,920.208 829.577,918.041 830.5,916C 848.071,913.474 865.738,910.974 883.5,908.5C 885.333,908.415 886.666,907.748 887.5,906.5 Z"/></g>
<g><path style="opacity:1" fill="#bdbdbd" d="M 1058.5,907.5 C 1077.15,910.646 1095.81,913.646 1114.5,916.5C 1114.5,918.167 1114.5,919.833 1114.5,921.5C 1095.79,919.526 1077.12,917.193 1058.5,914.5C 1058.5,912.167 1058.5,909.833 1058.5,907.5 Z"/></g>
<g><path style="opacity:1" fill="#e35850" d="M 1142.5,858.5 C 1144.49,895.819 1145.16,933.485 1144.5,971.5C 1144.17,971.5 1143.83,971.5 1143.5,971.5C 1143.83,933.761 1143.49,896.094 1142.5,858.5 Z"/></g>
<g><path style="opacity:1" fill="#b8babb" d="M 927.5,924.5 C 930.518,924.335 933.518,924.502 936.5,925C 941.923,927.075 947.59,928.408 953.5,929C 954.423,931.041 954.756,933.208 954.5,935.5C 950.608,934.262 946.608,933.095 942.5,932C 937.511,931.501 932.511,931.334 927.5,931.5C 922.015,930.348 916.349,930.182 910.5,931C 897.508,932.642 884.508,934.142 871.5,935.5C 871.5,933.5 871.5,931.5 871.5,929.5C 890.036,926.663 908.702,924.997 927.5,924.5 Z"/></g>
<g><path style="opacity:1" fill="#bbbbbb" d="M 1008.5,924.5 C 1026.39,924.336 1044.06,925.67 1061.5,928.5C 1061.5,930.167 1061.5,931.833 1061.5,933.5C 1047.13,932.574 1032.8,931.241 1018.5,929.5C 1014.83,929.833 1011.17,930.167 1007.5,930.5C 1001.25,931.586 995.255,933.253 989.5,935.5C 989.244,933.208 989.577,931.041 990.5,929C 996.439,926.742 1002.44,925.242 1008.5,924.5 Z"/></g>
<g><path style="opacity:1" fill="#bcbcbc" d="M 1076.5,931.5 C 1088.66,932.205 1100.66,933.705 1112.5,936C 1114.25,937.754 1114.92,939.921 1114.5,942.5C 1101.72,941.127 1089.05,939.127 1076.5,936.5C 1076.5,934.833 1076.5,933.167 1076.5,931.5 Z"/></g>
<g><path style="opacity:1" fill="#bbbbbb" d="M 848.5,932.5 C 851.833,932.5 855.167,932.5 858.5,932.5C 858.5,934.5 858.5,936.5 858.5,938.5C 848.876,939.891 839.209,940.891 829.5,941.5C 829.286,939.856 829.62,938.356 830.5,937C 836.845,935.829 842.845,934.329 848.5,932.5 Z"/></g>
<g><path style="opacity:1" fill="#b2b6b8" d="M 927.5,944.5 C 932.504,944.889 937.504,945.389 942.5,946C 946.021,947.674 949.687,948.84 953.5,949.5C 953.5,951.5 953.5,953.5 953.5,955.5C 947.892,953.911 942.225,952.411 936.5,951C 932.848,950.501 929.182,950.335 925.5,950.5C 915.8,950.726 906.134,951.393 896.5,952.5C 896.5,950.5 896.5,948.5 896.5,946.5C 906.799,945.522 917.133,944.855 927.5,944.5 Z"/></g>
<g><path style="opacity:1" fill="#bcbcbc" d="M 1007.5,944.5 C 1014.5,944.5 1021.5,944.5 1028.5,944.5C 1028.5,946.5 1028.5,948.5 1028.5,950.5C 1015.78,949.418 1003.44,951.085 991.5,955.5C 990.09,953.051 990.424,950.884 992.5,949C 997.605,947.424 1002.61,945.924 1007.5,944.5 Z"/></g>
<g><path style="opacity:1" fill="#bbbbbb" d="M 1042.5,947.5 C 1056.42,947.143 1069.92,949.143 1083,953.5C 1083.49,954.793 1083.66,956.127 1083.5,957.5C 1069.86,955.654 1056.19,953.987 1042.5,952.5C 1042.5,950.833 1042.5,949.167 1042.5,947.5 Z"/></g>
<g><path style="opacity:1" fill="#b9b9b9" d="M 876.5,949.5 C 878.5,949.5 880.5,949.5 882.5,949.5C 882.5,951.167 882.5,952.833 882.5,954.5C 865.199,957.193 847.865,959.527 830.5,961.5C 830.286,959.856 830.62,958.356 831.5,957C 846.479,954.036 861.479,951.536 876.5,949.5 Z"/></g>
<g><path style="opacity:1" fill="#bcbcbc" d="M 1097.5,954.5 C 1102.62,954.531 1107.62,955.364 1112.5,957C 1114.19,958.401 1114.86,960.234 1114.5,962.5C 1108.83,961.833 1103.17,961.167 1097.5,960.5C 1097.5,958.5 1097.5,956.5 1097.5,954.5 Z"/></g>
<g><path style="opacity:1" fill="#aeb4b6" d="M 916.5,965.5 C 929.079,964.466 941.245,966.132 953,970.5C 953.494,972.134 953.66,973.801 953.5,975.5C 948.044,974.532 942.711,973.032 937.5,971C 930.174,970.5 922.841,970.334 915.5,970.5C 915.366,968.708 915.699,967.042 916.5,965.5 Z"/></g>
<g><path style="opacity:1" fill="#bababa" d="M 1011.5,965.5 C 1023.88,965.467 1036.21,966.134 1048.5,967.5C 1048.5,969.5 1048.5,971.5 1048.5,973.5C 1034.65,970.89 1020.65,970.057 1006.5,971C 1000.74,972.687 995.073,974.52 989.5,976.5C 989.055,973.635 989.722,971.135 991.5,969C 998.254,967.502 1004.92,966.335 1011.5,965.5 Z"/></g>
<g><path style="opacity:1" fill="#b99397" d="M 797.5,858.5 C 796.506,898.761 796.173,939.094 796.5,979.5C 795.833,982.5 795.167,985.5 794.5,988.5C 794.427,954.663 794.76,920.83 795.5,887C 795.502,877.142 796.168,867.642 797.5,858.5 Z"/></g>
<g><path style="opacity:1" fill="#bcbcbc" d="M 886.5,967.5 C 891.5,967.5 896.5,967.5 901.5,967.5C 901.5,969.167 901.5,970.833 901.5,972.5C 894.404,973.22 887.404,974.386 880.5,976C 875.511,976.499 870.511,976.666 865.5,976.5C 865.261,974.533 865.594,972.699 866.5,971C 873.398,970.366 880.065,969.199 886.5,967.5 Z"/></g>
<g><path style="opacity:1" fill="#bbbbbb" d="M 1062.5,970.5 C 1079.94,971.911 1097.28,974.245 1114.5,977.5C 1114.5,979.167 1114.5,980.833 1114.5,982.5C 1097.16,980.164 1079.83,977.83 1062.5,975.5C 1062.5,973.833 1062.5,972.167 1062.5,970.5 Z"/></g>
<g><path style="opacity:1" fill="#bbbbbb" d="M 848.5,973.5 C 849.833,973.5 851.167,973.5 852.5,973.5C 852.917,976.079 852.25,978.246 850.5,980C 843.427,980.339 836.427,981.172 829.5,982.5C 829.261,980.533 829.594,978.699 830.5,977C 836.808,976.75 842.808,975.583 848.5,973.5 Z"/></g>
<g><path style="opacity:1" fill="#aeb3b5" d="M 922.5,985.5 C 932.531,985.218 942.198,986.885 951.5,990.5C 952.641,992.421 952.808,994.421 952,996.5C 951.5,996 951,995.5 950.5,995C 934.411,990.571 918.077,989.404 901.5,991.5C 901.5,990.167 901.5,988.833 901.5,987.5C 903.099,987.768 904.432,987.434 905.5,986.5C 911.13,985.708 916.797,985.375 922.5,985.5 Z"/></g>
<g><path style="opacity:1" fill="#bcbcbc" d="M 1010.5,985.5 C 1031.64,985.724 1052.64,987.39 1073.5,990.5C 1073.5,992.5 1073.5,994.5 1073.5,996.5C 1056.25,994.114 1038.92,992.447 1021.5,991.5C 1010.5,991.423 999.83,993.09 989.5,996.5C 989.201,994.396 989.534,992.396 990.5,990.5C 997.069,987.97 1003.74,986.303 1010.5,985.5 Z"/></g>
<g><path style="opacity:1" fill="#bababa" d="M 881.5,989.5 C 883.5,989.5 885.5,989.5 887.5,989.5C 887.5,991.5 887.5,993.5 887.5,995.5C 868.086,997.526 848.752,999.859 829.5,1002.5C 829.5,1000.5 829.5,998.5 829.5,996.5C 847.088,995.009 864.421,992.675 881.5,989.5 Z"/></g>
<g><path style="opacity:1" fill="#bababa" d="M 1086.5,993.5 C 1095.58,994.032 1104.42,995.699 1113,998.5C 1113.49,999.793 1113.66,1001.13 1113.5,1002.5C 1104.98,1001.09 1096.31,999.921 1087.5,999C 1086.59,997.301 1086.26,995.467 1086.5,993.5 Z"/></g>
<g><path style="opacity:1" fill="#cce0e6" d="M 1130.5,861.5 C 1131.33,865.982 1131.83,870.649 1132,875.5C 1132.55,917.5 1133.05,959.5 1133.5,1001.5C 1132.67,996.349 1132.17,991.016 1132,985.5C 1131.54,944.165 1131.04,902.832 1130.5,861.5 Z"/></g>
<g><path style="opacity:1" fill="#86aebf" d="M 796.5,979.5 C 796.5,980.5 796.5,981.5 796.5,982.5C 799.167,982.5 801.833,982.5 804.5,982.5C 804.5,997.167 804.5,1011.83 804.5,1026.5C 806.924,1026.19 809.257,1026.53 811.5,1027.5C 808.051,1034.12 803.051,1039.28 796.5,1043C 799.695,1043.18 802.695,1043.68 805.5,1044.5C 801.833,1044.5 798.167,1044.5 794.5,1044.5C 794.5,1025.83 794.5,1007.17 794.5,988.5C 795.167,985.5 795.833,982.5 796.5,979.5 Z"/></g>
<g><path style="opacity:1" fill="#82afc0" d="M 1142.5,978.5 C 1142.5,1000.17 1142.5,1021.83 1142.5,1043.5C 1142.17,1043.5 1141.83,1043.5 1141.5,1043.5C 1134.96,1039.13 1129.63,1033.63 1125.5,1027C 1103.97,1025.27 1082.64,1023.11 1061.5,1020.5C 1068.56,1020.2 1075.56,1020.54 1082.5,1021.5C 1083.73,1020.35 1083.73,1019.18 1082.5,1018C 1080.17,1017.67 1077.83,1017.33 1075.5,1017C 1074.94,1016.62 1074.61,1016.12 1074.5,1015.5C 1094.16,1018.82 1113.83,1022.15 1133.5,1025.5C 1134.5,1010.01 1134.83,994.342 1134.5,978.5C 1137.17,978.5 1139.83,978.5 1142.5,978.5 Z"/></g>
<g><path style="opacity:1" fill="#a2a3ad" d="M 1140.5,857.5 C 1141.17,857.833 1141.83,858.167 1142.5,858.5C 1143.49,896.094 1143.83,933.761 1143.5,971.5C 1143.83,995.672 1143.5,1019.67 1142.5,1043.5C 1142.5,1021.83 1142.5,1000.17 1142.5,978.5C 1142.7,938.117 1142.03,897.784 1140.5,857.5 Z"/></g>
<g><path style="opacity:1" fill="#5b95a5" d="M 1074.5,1015.5 C 1074.61,1016.12 1074.94,1016.62 1075.5,1017C 1077.83,1017.33 1080.17,1017.67 1082.5,1018C 1083.73,1019.18 1083.73,1020.35 1082.5,1021.5C 1075.56,1020.54 1068.56,1020.2 1061.5,1020.5C 1040.54,1015.52 1019.2,1014.02 997.5,1016C 994.648,1016.27 991.982,1017.1 989.5,1018.5C 988.702,1018.04 988.369,1017.38 988.5,1016.5C 997.709,1011.03 1007.71,1008.7 1018.5,1009.5C 1037.25,1010.84 1055.92,1012.84 1074.5,1015.5 Z"/></g>
<g><path style="opacity:1" fill="#5e96a7" d="M 951.5,1018.5 C 942.714,1015.98 933.714,1014.65 924.5,1014.5C 912.046,1014.87 899.713,1016.21 887.5,1018.5C 876.512,1019.64 865.512,1020.64 854.5,1021.5C 854.281,1020.32 854.614,1019.32 855.5,1018.5C 858.732,1017.87 861.732,1016.87 864.5,1015.5C 875.833,1013.67 887.166,1012 898.5,1010.5C 916.522,1007.59 933.855,1009.59 950.5,1016.5C 951.298,1016.96 951.631,1017.62 951.5,1018.5 Z"/></g>
<g><path style="opacity:1" fill="#94c4d3" d="M 815.5,843.5 C 813.582,844.868 811.415,845.868 809,846.5C 807.601,906.161 806.434,965.828 805.5,1025.5C 811.196,1024.71 816.863,1023.71 822.5,1022.5C 820.524,1024.01 818.191,1024.84 815.5,1025C 818.167,1025.17 820.833,1025.33 823.5,1025.5C 844.152,1023.62 864.819,1021.79 885.5,1020C 886.416,1019.72 887.082,1019.22 887.5,1018.5C 899.713,1016.21 912.046,1014.87 924.5,1014.5C 933.714,1014.65 942.714,1015.98 951.5,1018.5C 952.873,1018.34 954.207,1018.51 955.5,1019C 959.736,1021.75 964.069,1024.25 968.5,1026.5C 968.517,1028.03 969.184,1028.53 970.5,1028C 975.637,1022.85 981.637,1019.02 988.5,1016.5C 988.369,1017.38 988.702,1018.04 989.5,1018.5C 991.982,1017.1 994.648,1016.27 997.5,1016C 1019.2,1014.02 1040.54,1015.52 1061.5,1020.5C 1082.64,1023.11 1103.97,1025.27 1125.5,1027C 1129.63,1033.63 1134.96,1039.13 1141.5,1043.5C 1140.21,1043.26 1139.21,1043.6 1138.5,1044.5C 1138.17,1044.5 1137.83,1044.5 1137.5,1044.5C 1121.18,1045.37 1104.85,1045.7 1088.5,1045.5C 1082.86,1044.78 1077.2,1044.45 1071.5,1044.5C 1063.71,1042.94 1055.71,1041.94 1047.5,1041.5C 1039.16,1040.33 1030.82,1039 1022.5,1037.5C 1020.9,1035.93 1018.9,1035.26 1016.5,1035.5C 1006.03,1032.73 995.7,1033.23 985.5,1037C 981.016,1041.48 977.683,1046.65 975.5,1052.5C 969.88,1054.56 965.047,1053.56 961,1049.5C 956.555,1038.01 948.055,1032.68 935.5,1033.5C 930.752,1033.74 926.086,1034.4 921.5,1035.5C 918.171,1035.22 915.171,1035.88 912.5,1037.5C 910.435,1037.52 908.435,1037.85 906.5,1038.5C 901.223,1038.78 896.223,1039.78 891.5,1041.5C 889.5,1041.5 887.5,1041.5 885.5,1041.5C 877.957,1041.95 870.624,1042.95 863.5,1044.5C 862.167,1044.5 860.833,1044.5 859.5,1044.5C 841.849,1045.36 824.182,1045.7 806.5,1045.5C 805.833,1045.5 805.5,1045.17 805.5,1044.5C 802.695,1043.68 799.695,1043.18 796.5,1043C 803.051,1039.28 808.051,1034.12 811.5,1027.5C 809.257,1026.53 806.924,1026.19 804.5,1026.5C 804.5,1011.83 804.5,997.167 804.5,982.5C 801.833,982.5 799.167,982.5 796.5,982.5C 796.5,981.5 796.5,980.5 796.5,979.5C 796.173,939.094 796.506,898.761 797.5,858.5C 799.331,854.846 801.664,851.513 804.5,848.5C 805.559,846.445 807.225,845.111 809.5,844.5C 811.435,843.85 813.435,843.517 815.5,843.5 Z"/></g>
<g><path style="opacity:1" fill="#7fadbd" d="M 864.5,1015.5 C 861.732,1016.87 858.732,1017.87 855.5,1018.5C 854.614,1019.32 854.281,1020.32 854.5,1021.5C 865.512,1020.64 876.512,1019.64 887.5,1018.5C 887.082,1019.22 886.416,1019.72 885.5,1020C 864.819,1021.79 844.152,1023.62 823.5,1025.5C 820.833,1025.33 818.167,1025.17 815.5,1025C 818.191,1024.84 820.524,1024.01 822.5,1022.5C 836.512,1019.79 850.512,1017.45 864.5,1015.5 Z"/></g>
<g><path style="opacity:1" fill="#454646" d="M 1016.5,1035.5 C 1016.5,1039.17 1016.5,1042.83 1016.5,1046.5C 1007.15,1045.89 997.817,1045.39 988.5,1045C 987.069,1045.47 985.903,1046.3 985,1047.5C 980.224,1059.87 972.058,1063.2 960.5,1057.5C 957.318,1053.16 953.985,1048.99 950.5,1045C 940.854,1045.46 931.188,1045.96 921.5,1046.5C 921.5,1042.83 921.5,1039.17 921.5,1035.5C 926.086,1034.4 930.752,1033.74 935.5,1033.5C 948.055,1032.68 956.555,1038.01 961,1049.5C 965.047,1053.56 969.88,1054.56 975.5,1052.5C 977.683,1046.65 981.016,1041.48 985.5,1037C 995.7,1033.23 1006.03,1032.73 1016.5,1035.5 Z"/></g>
<g><path style="opacity:1" fill="#b6888b" d="M 1143.5,971.5 C 1143.83,971.5 1144.17,971.5 1144.5,971.5C 1145.36,995.823 1145.69,1020.16 1145.5,1044.5C 1143.17,1044.5 1140.83,1044.5 1138.5,1044.5C 1139.21,1043.6 1140.21,1043.26 1141.5,1043.5C 1141.83,1043.5 1142.17,1043.5 1142.5,1043.5C 1143.5,1019.67 1143.83,995.672 1143.5,971.5 Z"/></g>
<g><path style="opacity:1" fill="#cb7b7a" d="M 906.5,1038.5 C 906.082,1039.22 905.416,1039.72 904.5,1040C 900.152,1040.46 895.819,1040.96 891.5,1041.5C 896.223,1039.78 901.223,1038.78 906.5,1038.5 Z"/></g>
<g><path style="opacity:1" fill="#c97f7f" d="M 1047.5,1041.5 C 1055.71,1041.94 1063.71,1042.94 1071.5,1044.5C 1064.17,1044.05 1056.84,1043.55 1049.5,1043C 1048.58,1042.72 1047.92,1042.22 1047.5,1041.5 Z"/></g>
<g><path style="opacity:1" fill="#c68181" d="M 885.5,1041.5 C 884.737,1042.27 883.737,1042.77 882.5,1043C 876.173,1043.65 869.84,1044.15 863.5,1044.5C 870.624,1042.95 877.957,1041.95 885.5,1041.5 Z"/></g>
<g><path style="opacity:1" fill="#9e4c49" d="M 921.5,1035.5 C 921.5,1039.17 921.5,1042.83 921.5,1046.5C 921.5,1048.5 921.5,1050.5 921.5,1052.5C 925.167,1052.5 928.833,1052.5 932.5,1052.5C 932.5,1052.83 932.5,1053.17 932.5,1053.5C 931.833,1053.5 931.167,1053.5 930.5,1053.5C 927.167,1053.5 923.833,1053.5 920.5,1053.5C 920.5,1050.83 920.5,1048.17 920.5,1045.5C 920.5,1042.5 920.5,1039.5 920.5,1036.5C 917.833,1036.83 915.167,1037.17 912.5,1037.5C 915.171,1035.88 918.171,1035.22 921.5,1035.5 Z"/></g>
<g><path style="opacity:1" fill="#d56b67" d="M 859.5,1044.5 C 857.708,1045.31 855.708,1045.81 853.5,1046C 837.661,1046.83 821.995,1046.66 806.5,1045.5C 824.182,1045.7 841.849,1045.36 859.5,1044.5 Z"/></g>
<g><path style="opacity:1" fill="#d1716e" d="M 1137.5,1044.5 C 1128.39,1046.06 1119.06,1046.72 1109.5,1046.5C 1102.33,1046.5 1095.33,1046.17 1088.5,1045.5C 1104.85,1045.7 1121.18,1045.37 1137.5,1044.5 Z"/></g>
<g><path style="opacity:1" fill="#625e5d" d="M 1016.5,1046.5 C 1016.5,1048.5 1016.5,1050.5 1016.5,1052.5C 1013.5,1052.5 1010.5,1052.5 1007.5,1052.5C 1001.82,1052.37 996.152,1052.03 990.5,1051.5C 990.371,1053.22 990.038,1054.88 989.5,1056.5C 988.5,1057.83 987.5,1059.17 986.5,1060.5C 983.62,1063.04 980.287,1064.71 976.5,1065.5C 970.441,1065.75 964.441,1065.41 958.5,1064.5C 954.909,1062.88 951.909,1060.54 949.5,1057.5C 948.933,1055.97 948.267,1054.47 947.5,1053C 942.511,1052.5 937.511,1052.33 932.5,1052.5C 928.833,1052.5 925.167,1052.5 921.5,1052.5C 921.5,1050.5 921.5,1048.5 921.5,1046.5C 931.188,1045.96 940.854,1045.46 950.5,1045C 953.985,1048.99 957.318,1053.16 960.5,1057.5C 972.058,1063.2 980.224,1059.87 985,1047.5C 985.903,1046.3 987.069,1045.47 988.5,1045C 997.817,1045.39 1007.15,1045.89 1016.5,1046.5 Z"/></g>
<g><path style="opacity:1" fill="#c92827" d="M 920.5,1045.5 C 920.5,1048.17 920.5,1050.83 920.5,1053.5C 923.833,1053.5 927.167,1053.5 930.5,1053.5C 912.609,1054.41 894.609,1055.74 876.5,1057.5C 864.497,1058.22 852.497,1059.06 840.5,1060C 838.618,1060.2 836.952,1060.7 835.5,1061.5C 820.545,1063.26 805.545,1064.09 790.5,1064C 784.83,1062.84 781.83,1059.34 781.5,1053.5C 781.369,1052.76 781.536,1052.09 782,1051.5C 783.141,1053.61 784.641,1055.44 786.5,1057C 794.5,1057.67 802.5,1057.67 810.5,1057C 822.948,1055.27 835.448,1053.77 848,1052.5C 869.196,1051.39 890.363,1049.89 911.5,1048C 914.811,1047.94 917.811,1047.11 920.5,1045.5 Z"/></g>
<g><path style="opacity:1" fill="#ca2826" d="M 1019.5,1037.5 C 1019.5,1040.83 1019.5,1044.17 1019.5,1047.5C 1060.62,1050.09 1101.62,1053.42 1142.5,1057.5C 1145.5,1057.17 1148.5,1056.83 1151.5,1056.5C 1153.52,1054.81 1155.52,1053.14 1157.5,1051.5C 1157.61,1056.17 1155.94,1060.01 1152.5,1063C 1147.58,1064.08 1142.58,1064.58 1137.5,1064.5C 1095.68,1060.88 1054.01,1057.22 1012.5,1053.5C 1014.5,1053.5 1016.5,1053.5 1018.5,1053.5C 1018.18,1047.97 1018.51,1042.64 1019.5,1037.5 Z"/></g>
<g><path style="opacity:1" fill="#864946" d="M 1016.5,1035.5 C 1018.9,1035.26 1020.9,1035.93 1022.5,1037.5C 1021.5,1037.5 1020.5,1037.5 1019.5,1037.5C 1018.51,1042.64 1018.18,1047.97 1018.5,1053.5C 1016.5,1053.5 1014.5,1053.5 1012.5,1053.5C 1010.83,1053.5 1009.17,1053.5 1007.5,1053.5C 1007.5,1053.17 1007.5,1052.83 1007.5,1052.5C 1010.5,1052.5 1013.5,1052.5 1016.5,1052.5C 1016.5,1050.5 1016.5,1048.5 1016.5,1046.5C 1016.5,1042.83 1016.5,1039.17 1016.5,1035.5 Z"/></g>
<g><path style="opacity:1" fill="#cb2220" d="M 932.5,1053.5 C 932.5,1053.17 932.5,1052.83 932.5,1052.5C 937.511,1052.33 942.511,1052.5 947.5,1053C 948.267,1054.47 948.933,1055.97 949.5,1057.5C 947.974,1056.9 946.974,1055.73 946.5,1054C 941.845,1053.5 937.179,1053.33 932.5,1053.5 Z"/></g>
<g><path style="opacity:1" fill="#b6302c" d="M 1007.5,1052.5 C 1007.5,1052.83 1007.5,1053.17 1007.5,1053.5C 1002.13,1053.17 996.792,1053.51 991.5,1054.5C 991.145,1055.52 990.478,1056.19 989.5,1056.5C 990.038,1054.88 990.371,1053.22 990.5,1051.5C 996.152,1052.03 1001.82,1052.37 1007.5,1052.5 Z"/></g>
<g><path style="opacity:1" fill="#e21414" d="M 876.5,1057.5 C 876.082,1058.22 875.416,1058.72 874.5,1059C 861.506,1059.99 848.506,1060.82 835.5,1061.5C 836.952,1060.7 838.618,1060.2 840.5,1060C 852.497,1059.06 864.497,1058.22 876.5,1057.5 Z"/></g>
<g><path style="opacity:1" fill="#954440" d="M 958.5,1064.5 C 964.441,1065.41 970.441,1065.75 976.5,1065.5C 976.5,1065.83 976.5,1066.17 976.5,1066.5C 972.253,1067.6 967.92,1067.77 963.5,1067C 961.347,1066.9 959.681,1066.07 958.5,1064.5 Z"/></g>
<g><path style="opacity:1" fill="#cb2521" d="M 986.5,1060.5 C 984.469,1064.51 981.136,1066.51 976.5,1066.5C 976.5,1066.17 976.5,1065.83 976.5,1065.5C 980.287,1064.71 983.62,1063.04 986.5,1060.5 Z"/></g>
<g><path style="opacity:1" fill="#fffcfc" d="M 934.5,1275.5 C 940.509,1275.33 946.509,1275.5 952.5,1276C 969.332,1283.99 971.999,1295.32 960.5,1310C 947.714,1316.67 935.547,1315.84 924,1307.5C 916.482,1292.89 919.982,1282.22 934.5,1275.5 Z"/></g>
<g><path style="opacity:1" fill="#fffefe" d="M 652.5,1277.5 C 670.17,1277.33 687.836,1277.5 705.5,1278C 706.667,1279.17 707.833,1280.33 709,1281.5C 709.333,1297.83 709.667,1314.17 710,1330.5C 720.183,1322.71 731.683,1319.88 744.5,1322C 769.156,1325.99 782.989,1340.49 786,1365.5C 788.955,1385.38 786.955,1404.71 780,1423.5C 770.593,1440.46 756.093,1448.46 736.5,1447.5C 723.305,1447.88 712.305,1443.22 703.5,1433.5C 702.063,1436.04 700.897,1438.71 700,1441.5C 698.786,1443.05 697.286,1444.22 695.5,1445C 681.167,1445.67 666.833,1445.67 652.5,1445C 651.333,1443.83 650.167,1442.67 649,1441.5C 648.333,1437.17 648.333,1432.83 649,1428.5C 650.167,1427.33 651.333,1426.17 652.5,1425C 656.25,1424.74 659.916,1424.07 663.5,1423C 664.701,1422.1 665.535,1420.93 666,1419.5C 666.667,1380.5 666.667,1341.5 666,1302.5C 664.992,1300.74 663.492,1299.57 661.5,1299C 649.987,1298.48 645.82,1292.65 649,1281.5C 650.376,1280.29 651.542,1278.96 652.5,1277.5 Z"/></g>
<g><path style="opacity:1" fill="#fffdfd" d="M 813.5,1277.5 C 831.503,1277.33 849.503,1277.5 867.5,1278C 868.667,1279.17 869.833,1280.33 871,1281.5C 871.333,1327.83 871.667,1374.17 872,1420.5C 875.319,1424 879.486,1425.5 884.5,1425C 889.352,1429.41 890.852,1434.91 889,1441.5C 887.833,1442.67 886.667,1443.83 885.5,1445C 861.5,1445.67 837.5,1445.67 813.5,1445C 812.333,1443.83 811.167,1442.67 810,1441.5C 807.481,1429.01 812.648,1422.85 825.5,1423C 826.717,1421.35 827.55,1419.52 828,1417.5C 828.667,1379.5 828.667,1341.5 828,1303.5C 827.535,1302.07 826.701,1300.9 825.5,1300C 821.954,1298.83 818.287,1298.16 814.5,1298C 809.648,1293.59 808.148,1288.09 810,1281.5C 811.376,1280.29 812.542,1278.96 813.5,1277.5 Z"/></g>
<g><path style="opacity:1" fill="#fffefe" d="M 1519.5,1277.5 C 1537.17,1277.33 1554.84,1277.5 1572.5,1278C 1573.67,1279.17 1574.83,1280.33 1576,1281.5C 1576.33,1311.17 1576.67,1340.83 1577,1370.5C 1584.97,1362.54 1592.47,1354.21 1599.5,1345.5C 1588.97,1344.43 1585.47,1338.77 1589,1328.5C 1590.17,1327.33 1591.33,1326.17 1592.5,1325C 1611.5,1324.33 1630.5,1324.33 1649.5,1325C 1650.67,1326.17 1651.83,1327.33 1653,1328.5C 1654.82,1334.78 1653.32,1339.95 1648.5,1344C 1640.85,1344.88 1634.19,1347.88 1628.5,1353C 1621.95,1359.05 1615.95,1365.55 1610.5,1372.5C 1619.81,1386.3 1629.31,1399.97 1639,1413.5C 1643.58,1420.03 1649.75,1423.87 1657.5,1425C 1658.67,1426.17 1659.83,1427.33 1661,1428.5C 1661.67,1432.83 1661.67,1437.17 1661,1441.5C 1659.83,1442.67 1658.67,1443.83 1657.5,1445C 1648.5,1445.67 1639.5,1445.67 1630.5,1445C 1618.75,1444.53 1608.91,1440.03 1601,1431.5C 1594.03,1420.87 1586.7,1410.54 1579,1400.5C 1578.23,1400.64 1577.56,1400.98 1577,1401.5C 1576.12,1408.25 1576.46,1414.92 1578,1421.5C 1578.9,1422.7 1580.07,1423.53 1581.5,1424C 1593.62,1423.82 1597.79,1429.65 1594,1441.5C 1592.83,1442.67 1591.67,1443.83 1590.5,1445C 1566.83,1445.67 1543.17,1445.67 1519.5,1445C 1518.33,1443.83 1517.17,1442.67 1516,1441.5C 1515.33,1437.17 1515.33,1432.83 1516,1428.5C 1517.17,1427.33 1518.33,1426.17 1519.5,1425C 1523.29,1424.84 1526.95,1424.17 1530.5,1423C 1531.7,1422.1 1532.53,1420.93 1533,1419.5C 1533.67,1380.5 1533.67,1341.5 1533,1302.5C 1532.5,1300.67 1531.33,1299.5 1529.5,1299C 1525.89,1298.06 1522.22,1297.39 1518.5,1297C 1517.67,1296.17 1516.83,1295.33 1516,1294.5C 1515.33,1290.17 1515.33,1285.83 1516,1281.5C 1517.38,1280.29 1518.54,1278.96 1519.5,1277.5 Z"/></g>
<g><path style="opacity:1" fill="#fffdfd" d="M 331.5,1286.5 C 357.169,1286.33 382.835,1286.5 408.5,1287C 421.21,1287.84 433.21,1291.18 444.5,1297C 463.518,1311.53 469.351,1330.37 462,1353.5C 456.5,1367 447,1376.5 433.5,1382C 420.216,1386.54 406.55,1388.71 392.5,1388.5C 392.333,1399.84 392.5,1411.17 393,1422.5C 393.5,1423 394,1423.5 394.5,1424C 400.5,1424.33 406.5,1424.67 412.5,1425C 417.352,1429.41 418.852,1434.91 417,1441.5C 415.833,1442.67 414.667,1443.83 413.5,1445C 386.167,1445.67 358.833,1445.67 331.5,1445C 326.684,1440.95 325.184,1435.78 327,1429.5C 328.5,1428 330,1426.5 331.5,1425C 336.167,1424.67 340.833,1424.33 345.5,1424C 346.126,1423.25 346.626,1422.42 347,1421.5C 347.667,1384.5 347.667,1347.5 347,1310.5C 346.626,1309.58 346.126,1308.75 345.5,1308C 340.833,1307.67 336.167,1307.33 331.5,1307C 326.684,1302.95 325.184,1297.78 327,1291.5C 328.707,1289.96 330.207,1288.3 331.5,1286.5 Z"/></g>
<g><path style="opacity:1" fill="#fffcfc" d="M 1213.5,1286.5 C 1259.5,1286.33 1305.5,1286.5 1351.5,1287C 1353,1288.5 1354.5,1290 1356,1291.5C 1356.67,1305.5 1356.67,1319.5 1356,1333.5C 1355.17,1334.33 1354.33,1335.17 1353.5,1336C 1347.83,1336.67 1342.17,1336.67 1336.5,1336C 1335.67,1335.09 1334.67,1334.42 1333.5,1334C 1331.97,1327.61 1330.81,1321.11 1330,1314.5C 1328.83,1313.33 1327.67,1312.17 1326.5,1311C 1319.28,1309.57 1311.95,1309.07 1304.5,1309.5C 1304.33,1346.83 1304.5,1384.17 1305,1421.5C 1305.37,1422.42 1305.87,1423.25 1306.5,1424C 1311.17,1424.33 1315.83,1424.67 1320.5,1425C 1325.32,1429.05 1326.82,1434.22 1325,1440.5C 1323.5,1442 1322,1443.5 1320.5,1445C 1294.83,1445.67 1269.17,1445.67 1243.5,1445C 1242.33,1443.83 1241.17,1442.67 1240,1441.5C 1237.03,1427.13 1242.87,1421.3 1257.5,1424C 1258,1423.5 1258.5,1423 1259,1422.5C 1259.5,1384.83 1259.67,1347.17 1259.5,1309.5C 1252.05,1309.07 1244.72,1309.57 1237.5,1311C 1235.95,1312.21 1234.78,1313.71 1234,1315.5C 1233.14,1321.14 1232.47,1326.81 1232,1332.5C 1230.83,1333.67 1229.67,1334.83 1228.5,1336C 1222.83,1336.67 1217.17,1336.67 1211.5,1336C 1210.33,1334.83 1209.17,1333.67 1208,1332.5C 1207.31,1318.81 1207.64,1305.14 1209,1291.5C 1210.71,1289.96 1212.21,1288.3 1213.5,1286.5 Z"/></g>
<g><path style="opacity:1" fill="#ff170c" d="M 392.5,1308.5 C 411.562,1308.4 419.896,1317.9 417.5,1337C 418.047,1344.93 416.547,1352.43 413,1359.5C 407.042,1365.29 399.875,1367.62 391.5,1366.5C 391.18,1347.09 391.513,1327.76 392.5,1308.5 Z"/></g>
<g><path style="opacity:1" fill="#fffdfd" d="M 1053.5,1321.5 C 1067.81,1320.51 1081.81,1322.01 1095.5,1326C 1103.22,1329.05 1109.05,1334.22 1113,1341.5C 1115.16,1359.02 1107.33,1368.52 1089.5,1370C 1077.63,1371.79 1072.8,1366.63 1075,1354.5C 1074,1345.13 1069.17,1341.97 1060.5,1345C 1054.66,1350.49 1051.49,1357.32 1051,1365.5C 1050.33,1376.83 1050.33,1388.17 1051,1399.5C 1055.49,1422.24 1068.32,1428.41 1089.5,1418C 1093.5,1415.33 1096.83,1412 1099.5,1408C 1104.13,1405.39 1107.97,1406.23 1111,1410.5C 1116.03,1421.63 1113.53,1430.79 1103.5,1438C 1091.67,1445 1078.84,1448.17 1065,1447.5C 1034.44,1448.26 1015.44,1433.92 1008,1404.5C 1004.71,1385.66 1006.38,1367.33 1013,1349.5C 1021.81,1333.35 1035.31,1324.02 1053.5,1321.5 Z"/></g>
<g><path style="opacity:1" fill="#fffdfd" d="M 1415.5,1321.5 C 1430.01,1320.7 1444.35,1321.86 1458.5,1325C 1470.64,1329.47 1478.14,1337.97 1481,1350.5C 1481.33,1373.17 1481.67,1395.83 1482,1418.5C 1482.81,1423.81 1485.97,1425.98 1491.5,1425C 1492.67,1426.17 1493.83,1427.33 1495,1428.5C 1495.67,1432.83 1495.67,1437.17 1495,1441.5C 1493.83,1442.67 1492.67,1443.83 1491.5,1445C 1477.5,1445.67 1463.5,1445.67 1449.5,1445C 1448.07,1444.53 1446.9,1443.7 1446,1442.5C 1444.93,1439.78 1443.76,1437.12 1442.5,1434.5C 1436.77,1441.37 1429.44,1445.54 1420.5,1447C 1384.96,1450.13 1368.8,1433.96 1372,1398.5C 1377.38,1383.13 1388.22,1374.3 1404.5,1372C 1415.76,1370.17 1427.09,1369.34 1438.5,1369.5C 1438.67,1363.16 1438.5,1356.82 1438,1350.5C 1434.77,1342.84 1429.77,1341.51 1423,1346.5C 1421.09,1351.66 1419.76,1356.99 1419,1362.5C 1415.34,1366.37 1410.84,1367.53 1405.5,1366C 1398.37,1365.51 1391.7,1363.51 1385.5,1360C 1376.59,1345.45 1379.92,1334.45 1395.5,1327C 1402.21,1324.83 1408.87,1323 1415.5,1321.5 Z"/></g>
<g><path style="opacity:1" fill="#fffdfd" d="M 488.5,1324.5 C 505.503,1324.33 522.503,1324.5 539.5,1325C 540.667,1326.17 541.833,1327.33 543,1328.5C 543.072,1355.86 543.739,1383.19 545,1410.5C 548.181,1420.34 554.347,1422.84 563.5,1418C 567.13,1414.24 569.297,1409.74 570,1404.5C 570.667,1385.83 570.667,1367.17 570,1348.5C 569.626,1347.58 569.126,1346.75 568.5,1346C 555.981,1345.8 551.481,1339.64 555,1327.5C 555.833,1326.67 556.667,1325.83 557.5,1325C 575.167,1324.33 592.833,1324.33 610.5,1325C 611.667,1326.17 612.833,1327.33 614,1328.5C 614.333,1359.5 614.667,1390.5 615,1421.5C 615.374,1422.42 615.874,1423.25 616.5,1424C 629.134,1423.32 633.634,1429.15 630,1441.5C 628.833,1442.67 627.667,1443.83 626.5,1445C 611.5,1445.67 596.5,1445.67 581.5,1445C 577.653,1442.99 575.32,1439.82 574.5,1435.5C 565.192,1444.33 554.026,1448.33 541,1447.5C 517.175,1447.24 503.842,1435.24 501,1411.5C 500.667,1391.17 500.333,1370.83 500,1350.5C 499.727,1348.67 498.893,1347.17 497.5,1346C 485.987,1345.48 481.82,1339.65 485,1328.5C 486.376,1327.29 487.542,1325.96 488.5,1324.5 Z"/></g>
<g><path style="opacity:1" fill="#fffdfd" d="M 908.5,1324.5 C 926.503,1324.33 944.503,1324.5 962.5,1325C 963.667,1326.17 964.833,1327.33 966,1328.5C 966.333,1359.17 966.667,1389.83 967,1420.5C 968.167,1421.67 969.333,1422.83 970.5,1424C 983.134,1423.32 987.634,1429.15 984,1441.5C 982.833,1442.67 981.667,1443.83 980.5,1445C 956.5,1445.67 932.5,1445.67 908.5,1445C 907.333,1443.83 906.167,1442.67 905,1441.5C 902.481,1429.01 907.648,1422.85 920.5,1423C 921.46,1421.58 922.293,1420.08 923,1418.5C 923.667,1395.83 923.667,1373.17 923,1350.5C 922.215,1348.71 921.049,1347.21 919.5,1346C 915.916,1344.93 912.25,1344.26 908.5,1344C 907.333,1342.83 906.167,1341.67 905,1340.5C 903.432,1334.38 904.599,1329.04 908.5,1324.5 Z"/></g>
<g><path style="opacity:1" fill="#ff0b05" d="M 722.5,1346.5 C 732.406,1345.53 738.573,1349.87 741,1359.5C 744.529,1376.92 744.196,1394.26 740,1411.5C 735.612,1423.08 728.112,1425.58 717.5,1419C 712.611,1410.92 710.111,1402.09 710,1392.5C 709.022,1379.57 710.355,1366.9 714,1354.5C 716.074,1350.92 718.907,1348.26 722.5,1346.5 Z"/></g>
<g><path style="opacity:1" fill="#ff1109" d="M 1429.5,1390.5 C 1432.5,1390.5 1435.5,1390.5 1438.5,1390.5C 1438.84,1397.57 1438.34,1404.57 1437,1411.5C 1433.29,1421.36 1426.62,1424.36 1417,1420.5C 1413.13,1410.92 1414.3,1402.08 1420.5,1394C 1423.46,1392.4 1426.46,1391.23 1429.5,1390.5 Z"/></g>
<g><path style="opacity:0.999" fill="#fffefe" d="M 234.5,1503.5 C 735.5,1503.5 1236.5,1503.5 1737.5,1503.5C 1728.6,1516.28 1719.43,1528.95 1710,1541.5C 1698.05,1555.76 1685.89,1569.76 1673.5,1583.5C 1215.17,1583.5 756.833,1583.5 298.5,1583.5C 285.643,1570.13 273.476,1556.13 262,1541.5C 252.57,1528.95 243.403,1516.28 234.5,1503.5 Z"/></g>
<g><path style="opacity:0.997" fill="#fe0000" d="M 298.5,1583.5 C 756.833,1583.5 1215.17,1583.5 1673.5,1583.5C 1542.11,1730.14 1379.78,1825.64 1186.5,1870C 952.561,1918.84 731.561,1884.84 523.5,1768C 438.671,1718.86 363.671,1657.36 298.5,1583.5 Z"/></g>
</svg>
